<svg width="108" height="20" viewBox="0 0 108 20" fill="none" xmlns="http://www.w3.org/2000/svg">
<path fill-rule="evenodd" clip-rule="evenodd" d="M85.8166 5.73007V0.90525H71.8246L67.9648 0.905249L66.0348 0.90525V19.7221H71.8246L85.8166 19.722V14.8972L71.8246 14.8972V12.9673L82.4392 12.9673V8.14248L71.8246 8.14248V5.73007L85.8166 5.73007ZM62.6575 0.90525C62.6575 0.90525 63.1399 0.90525 63.3812 1.38773C63.6224 1.87021 63.6224 2.3527 63.6224 2.3527V9.40901L63.6243 9.41089L63.6224 9.41277V9.41842L63.6171 9.4181L59.5898 13.4454L59.5901 13.4498H49.6304V19.7221H43.8406V0.90525L45.2881 0.905249L49.6304 0.90525H62.6575ZM49.6304 8.62496L57.043 8.62496L58.3151 7.3528V5.73007L49.6304 5.73007V8.62496ZM13.9268 0.90525H19.7166V19.7221H13.9268V13.4498L6.20702 13.4498V19.7221H0.417236V0.905273H6.20702V8.62496L13.9268 8.62496V0.90525ZM41.9107 0.90525H36.1209V8.62496L28.78 8.62496L27.9187 7.76366V0.90525H22.1289V9.32985L22.1233 9.3355L22.1289 9.34115V9.34869L22.1362 9.34839L26.2304 13.4426L26.2301 13.4498L36.1209 13.4498V14.8972L22.1289 14.8972V19.7221H40.9457L41.9107 19.7221V0.90525ZM102.221 7.35281V5.73007H94.0188V8.62496L100.949 8.62496L102.221 7.35281ZM94.0188 19.7221V13.4498L97.8094 13.4498L100.826 18.8612L101.015 19.2396C101.095 19.4004 101.256 19.7221 101.739 19.722H107.528V14.8972H104.58L103.672 13.2686L107.523 9.4181L107.528 9.41842V9.41278L107.53 9.41089L107.528 9.409V2.3527C107.528 2.3527 107.528 1.87021 107.287 1.38773C107.046 0.90525 106.563 0.90525 106.563 0.90525H94.0188L89.194 0.905249L88.229 0.90525V19.7221H94.0188Z" fill="url(#paint0_linear_4_1613)"/>
<defs>
<linearGradient id="paint0_linear_4_1613" x1="48.2203" y1="-6.71549" x2="138.24" y2="-13.928" gradientUnits="userSpaceOnUse">
<stop stop-color="#D7D7D7"/>
<stop offset="1" stop-color="#D7D7D7" stop-opacity="0"/>
</linearGradient>
</defs>
</svg>
